<svg xmlns="http://www.w3.org/2000/svg" viewBox="0 0 24 24" fill="none">
  <path d="M17.63 7.23V4.81a1.94 1.94 0 0 0 1.13-1.75 1.95 1.95 0 0 0-1.95-1.95 1.95 1.95 0 0 0-1.95 1.95c0 .77.45 1.43 1.1 1.75v2.42a5.35 5.35 0 0 0-2.53 1.27l-6.7-5.22a2.33 2.33 0 0 0 .07-.54A2.27 2.27 0 0 0 4.52.47 2.27 2.27 0 0 0 2.25 2.74a2.27 2.27 0 0 0 2.27 2.27c.5 0 .96-.16 1.33-.44l6.58 5.13a5.38 5.38 0 0 0-.75 2.74 5.39 5.39 0 0 0 .87 2.95l-2.07 2.07a2.63 2.63 0 0 0-.77-.13 2.55 2.55 0 0 0-2.55 2.55 2.55 2.55 0 0 0 2.55 2.55 2.55 2.55 0 0 0 2.55-2.55c0-.28-.05-.55-.13-.8l2.02-2.02a5.38 5.38 0 1 0 3.48-9.83Zm0 8.44a2.7 2.7 0 1 1 0-5.4 2.7 2.7 0 0 1 0 5.4Z" fill="#FF7A59"/>
</svg>
