<!-- Sygnet from the official Open Mercato wordmark (openmercato.com), on the brand tile. --><svg xmlns="http://www.w3.org/2000/svg" viewBox="0 0 32 32" role="img" aria-label="Open Mercato"><defs><linearGradient id="openMercatoMark" x1="7" y1="25" x2="25" y2="7" gradientUnits="userSpaceOnUse"><stop offset="0" stop-color="#D9C7D4"/><stop offset="1" stop-color="#CFF76C"/></linearGradient></defs><rect width="32" height="32" rx="7" fill="#0C0C0C"/><g transform="translate(7.42 3.67) scale(0.6852)"><path fill-rule="evenodd" clip-rule="evenodd" d="M11.9131 4.14905C12.2801 3.94836 12.7228 3.95131 13.0898 4.15198L17.6113 6.63343L17.6973 6.69007C18.0984 6.99101 18.0687 7.63289 17.6094 7.8844L13.1484 10.3336C12.7494 10.5533 12.5002 10.9762 12.5 11.4371V16.7096H12.502L12.5 16.7135C12.513 17.3834 13.0736 17.8392 13.6719 17.4332H13.6738L13.6748 17.4342L18.4072 14.8375C18.6213 14.7218 18.8809 14.7232 19.0947 14.8395L24.6221 17.8717C24.8551 17.9992 25 18.2458 25 18.5143V25.0348C25 25.3033 24.8552 25.2794 24.6221 25.4069C20.682 27.569 16.756 29.7556 12.8164 31.9186C12.6208 32.0271 12.3848 32.0271 12.1865 31.9186L0.680664 25.816C0.262761 25.6045 4.53024e-05 25.1705 0 24.6959V18.8239C0 18.3628 0.249252 17.9391 0.648438 17.7194L5.60254 15.0045C6.00179 14.7848 6.25195 14.3611 6.25195 13.9V7.97425C6.25196 7.51043 6.50335 7.08653 6.90527 6.86682L11.9131 4.14905ZM12.8086 18.3219C12.3928 18.2053 11.9201 18.4013 11.8604 18.4274C11.8574 18.4291 11.8545 18.4316 11.8516 18.4332L6.90039 21.151C6.50119 21.3707 6.252 21.7935 6.25195 22.2545C6.25195 23.9939 6.24133 27.7248 6.24121 27.7692C6.24149 27.9068 6.28712 28.1393 6.5625 28.276C6.78018 28.3826 7.02219 28.2769 7.17285 28.1823C7.20083 28.1667 10.686 26.2248 12.1865 25.401C12.3821 25.2925 12.6181 25.2925 12.8164 25.401L17.6816 28.0729H17.6836C18.4031 28.4912 18.751 27.7694 18.751 27.3844V21.943C18.751 21.6747 18.6068 21.428 18.374 21.3004L13.6738 18.7203C13.6452 18.7046 13.6182 18.6871 13.5928 18.6686C13.4495 18.5846 13.1355 18.4137 12.8086 18.3219Z" fill="url(#openMercatoMark)"/></g></svg>
